<svg width="1200" height="900" viewBox="0 0 1200 900" fill="none" xmlns="http://www.w3.org/2000/svg">
  <rect width="1200" height="900" fill="#171B20"/>
  <rect width="1200" height="900" fill="url(#paint0_linear)"/>
  <rect x="70" y="110" width="1060" height="680" rx="32" fill="#20272F"/>
  <path d="M206 610C206 560.294 246.294 520 296 520H826C878.99 520 922.677 561.64 925.238 614.568L928 672H206V610Z" fill="#C34A35"/>
  <circle cx="336" cy="680" r="58" fill="#0C0F13"/>
  <circle cx="794" cy="680" r="58" fill="#0C0F13"/>
  <path d="M302 466C358 396 411 362 500 362H652C716 362 770 385 816 439L878 520H260L302 466Z" fill="#E2E6EA"/>
  <path d="M380 420H659C697 420 729 436 756 472L790 520H310L339 454C347 435 362 420 380 420Z" fill="#4F7F99"/>
  <rect x="390" y="452" width="170" height="60" rx="10" fill="#1B222A"/>
  <rect x="576" y="452" width="130" height="60" rx="10" fill="#1B222A"/>
  <rect x="156" y="190" width="204" height="22" rx="11" fill="#F2B15A"/>
  <rect x="382" y="190" width="174" height="22" rx="11" fill="#C34A35"/>
  <path d="M988 350C988 294.772 1032.77 250 1088 250V532H988V350Z" fill="#2D3741"/>
  <defs>
    <linearGradient id="paint0_linear" x1="600" y1="0" x2="600" y2="900" gradientUnits="userSpaceOnUse">
      <stop stop-color="#20262D"/>
      <stop offset="1" stop-color="#0B0E12"/>
    </linearGradient>
  </defs>
</svg>
