<svg width="1200" height="900" viewBox="0 0 1200 900" fill="none" xmlns="http://www.w3.org/2000/svg">
  <rect width="1200" height="900" fill="#161B20"/>
  <rect width="1200" height="900" fill="url(#paint0_linear)"/>
  <rect x="72" y="110" width="1056" height="680" rx="30" fill="#20272F"/>
  <path d="M220 618C220 572.713 256.713 536 302 536H812C857.287 536 894 572.713 894 618V664H220V618Z" fill="#B0BAC3"/>
  <circle cx="350" cy="676" r="52" fill="#0C0F13"/>
  <circle cx="792" cy="676" r="52" fill="#0C0F13"/>
  <path d="M328 444C372 404 431 384 508 384H688C768 384 820 422 874 498L908 536H236L328 444Z" fill="#E6EAED"/>
  <path d="M406 432H684C729 432 769 448 804 478L850 536H318L356 470C368 450 385 432 406 432Z" fill="#4F7F99"/>
  <rect x="156" y="184" width="220" height="22" rx="11" fill="#F2B15A"/>
  <rect x="398" y="184" width="164" height="22" rx="11" fill="#C34A35"/>
  <defs>
    <linearGradient id="paint0_linear" x1="600" y1="0" x2="600" y2="900" gradientUnits="userSpaceOnUse">
      <stop stop-color="#20262D"/>
      <stop offset="1" stop-color="#0B0E11"/>
    </linearGradient>
  </defs>
</svg>
