<svg width="1200" height="900" viewBox="0 0 1200 900" fill="none" xmlns="http://www.w3.org/2000/svg">
  <rect width="1200" height="900" fill="#151A20"/>
  <rect width="1200" height="900" fill="url(#paint0_linear)"/>
  <rect x="82" y="106" width="1036" height="688" rx="28" fill="#232C35"/>
  <rect x="124" y="160" width="952" height="446" rx="22" fill="#101419"/>
  <path d="M360 580C360 539.131 393.131 506 434 506H752C792.869 506 826 539.131 826 580V614H360V580Z" fill="#4F7F99"/>
  <circle cx="438" cy="618" r="42" fill="#0C0F13"/>
  <circle cx="748" cy="618" r="42" fill="#0C0F13"/>
  <path d="M312 548C363 493 410 464 504 464H686C732 464 786 489 870 548H312Z" fill="#E0E4E8"/>
  <rect x="516" y="170" width="248" height="24" rx="12" fill="#C34A35"/>
  <rect x="218" y="238" width="184" height="208" rx="18" fill="#2F3944"/>
  <rect x="220" y="628" width="756" height="102" rx="18" fill="#1A2027"/>
  <defs>
    <linearGradient id="paint0_linear" x1="600" y1="0" x2="600" y2="900" gradientUnits="userSpaceOnUse">
      <stop stop-color="#1E252C"/>
      <stop offset="1" stop-color="#0B0E12"/>
    </linearGradient>
  </defs>
</svg>
