<svg width="1600" height="900" viewBox="0 0 1600 900" fill="none" xmlns="http://www.w3.org/2000/svg">
  <rect width="1600" height="900" fill="#111418"/>
  <rect width="1600" height="900" fill="url(#paint0_linear)"/>
  <rect x="60" y="120" width="1480" height="660" rx="28" fill="url(#paint1_linear)" fill-opacity="0.86" stroke="rgba(255,255,255,0.08)"/>
  <rect x="132" y="182" width="380" height="510" rx="18" fill="#1B222A"/>
  <rect x="550" y="212" width="914" height="364" rx="20" fill="#252D36"/>
  <rect x="550" y="610" width="914" height="82" rx="20" fill="#1A2027"/>
  <rect x="576" y="240" width="860" height="56" rx="12" fill="#36424E"/>
  <rect x="590" y="320" width="820" height="180" rx="18" fill="#12161B"/>
  <path d="M630 500H1400V592H630V500Z" fill="#0E1216"/>
  <rect x="160" y="220" width="320" height="196" rx="20" fill="#20262D"/>
  <rect x="160" y="438" width="320" height="224" rx="20" fill="#151A20"/>
  <path d="M894 616C894 577.34 925.34 546 964 546H1165C1203.66 546 1235 577.34 1235 616V618H894V616Z" fill="#C34A35"/>
  <circle cx="957" cy="621" r="42" fill="#0C0F13"/>
  <circle cx="1174" cy="621" r="42" fill="#0C0F13"/>
  <path d="M820 562C860 526 919 514 992 514H1124C1177 514 1216 527 1247 562H820Z" fill="#D6D9DE"/>
  <path d="M882 462C893 390 952 338 1026 338H1097C1171 338 1231 390 1242 462H882Z" fill="#485766"/>
  <path d="M955 369L1095 369L1172 448H874L955 369Z" fill="#9FA9B3"/>
  <rect x="1020" y="396" width="102" height="40" rx="8" fill="#1E252C"/>
  <path d="M330 610C330 568.026 364.026 534 406 534H462V692H330V610Z" fill="#D35A40"/>
  <circle cx="441" cy="701" r="28" fill="#0C0F13"/>
  <circle cx="335" cy="701" r="28" fill="#0C0F13"/>
  <path d="M231 693C253 631 294 577 364 548L416 548L381 693H231Z" fill="#9EA8B2"/>
  <path d="M318 420C342 389 363 372 406 372C462 372 506 416 506 472V474H282V456C282 442 289 430 318 420Z" fill="#C34A35"/>
  <rect x="214" y="476" width="96" height="186" rx="18" fill="#36424E"/>
  <rect x="326" y="476" width="114" height="186" rx="18" fill="#2A323B"/>
  <circle cx="382" cy="464" r="46" fill="#F2B15A"/>
  <path d="M388 424L399 452H428L405 469L414 498L388 481L362 498L371 469L348 452H377L388 424Z" fill="#111418"/>
  <rect x="108" y="148" width="208" height="14" rx="7" fill="#C34A35"/>
  <rect x="334" y="148" width="140" height="14" rx="7" fill="#4F7F99"/>
  <defs>
    <linearGradient id="paint0_linear" x1="800" y1="0" x2="800" y2="900" gradientUnits="userSpaceOnUse">
      <stop stop-color="#1A2027"/>
      <stop offset="1" stop-color="#0C0F13"/>
    </linearGradient>
    <linearGradient id="paint1_linear" x1="800" y1="120" x2="800" y2="780" gradientUnits="userSpaceOnUse">
      <stop stop-color="#2D3741"/>
      <stop offset="1" stop-color="#171C22"/>
    </linearGradient>
  </defs>
</svg>
