<svg width="1600" height="900" viewBox="0 0 1600 900" fill="none" xmlns="http://www.w3.org/2000/svg">
  <rect width="1600" height="900" fill="#171C22"/>
  <rect width="1600" height="900" fill="url(#paint0_linear)"/>
  <rect x="92" y="140" width="1416" height="640" rx="30" fill="#20272F"/>
  <rect x="156" y="228" width="1288" height="458" rx="24" fill="#232C35"/>
  <rect x="214" y="276" width="1172" height="310" rx="20" fill="#181E24"/>
  <rect x="312" y="214" width="976" height="72" rx="18" fill="#C34A35"/>
  <rect x="382" y="232" width="836" height="36" rx="12" fill="#F3F5F7" fill-opacity="0.92"/>
  <rect x="232" y="610" width="1138" height="38" rx="16" fill="#12161B"/>
  <path d="M236 734C253 683 300 648 355 648H1247C1302 648 1349 683 1366 734H236Z" fill="#0C0F13"/>
  <rect x="284" y="336" width="252" height="206" rx="16" fill="#4F7F99"/>
  <rect x="578" y="336" width="252" height="206" rx="16" fill="#4F7F99"/>
  <rect x="872" y="336" width="252" height="206" rx="16" fill="#4F7F99"/>
  <rect x="1166" y="336" width="178" height="206" rx="16" fill="#2E3943"/>
  <defs>
    <linearGradient id="paint0_linear" x1="800" y1="0" x2="800" y2="900" gradientUnits="userSpaceOnUse">
      <stop stop-color="#1E252C"/>
      <stop offset="1" stop-color="#0A0D10"/>
    </linearGradient>
  </defs>
</svg>
