<svg width="1200" height="900" viewBox="0 0 1200 900" fill="none" xmlns="http://www.w3.org/2000/svg">
  <rect width="1200" height="900" fill="#161B20"/>
  <rect width="1200" height="900" fill="url(#paint0_linear)"/>
  <rect x="76" y="92" width="1048" height="716" rx="30" fill="#232B33"/>
  <rect x="120" y="144" width="960" height="138" rx="18" fill="#2F3944"/>
  <rect x="120" y="314" width="284" height="420" rx="18" fill="#1A2027"/>
  <rect x="432" y="314" width="648" height="420" rx="18" fill="#13181D"/>
  <path d="M510 621C510 570.19 551.19 529 602 529H777C827.81 529 869 570.19 869 621V654H510V621Z" fill="#C34A35"/>
  <circle cx="589" cy="657" r="40" fill="#0C0F13"/>
  <circle cx="789" cy="657" r="40" fill="#0C0F13"/>
  <path d="M486 555C538 506 593 482 690 482H770C815 482 866 503 905 555H486Z" fill="#D4D8DD"/>
  <rect x="242" y="380" width="96" height="256" rx="18" fill="#4F7F99"/>
  <circle cx="287" cy="355" r="48" fill="#F2B15A"/>
  <path d="M287 387C339 387 380 429 380 481V636H194V480C194 429 235 387 287 387Z" fill="#E1E6EA"/>
  <path d="M287 405C320 405 347 432 347 465V636H227V465C227 432 254 405 287 405Z" fill="#35414C"/>
  <rect x="506" y="160" width="244" height="24" rx="12" fill="#C34A35"/>
  <rect x="768" y="160" width="184" height="24" rx="12" fill="#4F7F99"/>
  <defs>
    <linearGradient id="paint0_linear" x1="600" y1="0" x2="600" y2="900" gradientUnits="userSpaceOnUse">
      <stop stop-color="#20272F"/>
      <stop offset="1" stop-color="#0D1115"/>
    </linearGradient>
  </defs>
</svg>
